<?xml version="1.0" encoding="utf-8"?>
<svg viewBox="102.594 69.679 297.7265 49.0013" xmlns="http://www.w3.org/2000/svg">
  <defs>
    <linearGradient gradientUnits="userSpaceOnUse" x1="194.455" y1="137.674" x2="194.455" y2="163.455" id="gradient-0" gradientTransform="matrix(1, 0, 0, 1, -14.236451, -49.197388)">
      <stop offset="0" style="stop-color: rgba(140, 83, 183, 1)"/>
      <stop offset="1" style="stop-color: rgba(87, 48, 116, 1)"/>
    </linearGradient>
  </defs>
  <path d="M 121.113 100.813 Q 119.226 104.894 115.411 104.894 Q 113.812 104.894 112.663 104.217 Q 111.494 103.643 110.777 102.72 Q 109.895 101.756 109.608 100.198 Q 109.28 98.639 109.28 94.23 Q 109.28 89.821 109.608 88.221 Q 109.895 86.703 110.777 85.74 Q 111.494 84.817 112.663 84.201 Q 113.812 83.607 115.411 83.566 Q 117.585 83.607 119.103 84.817 Q 120.559 86.088 121.113 87.893 L 125.911 87.893 Q 125.194 84.14 122.466 81.597 Q 119.739 79.075 115.411 79.034 Q 111.884 79.075 109.526 80.715 Q 107.126 82.335 106.039 84.407 Q 105.363 85.493 105.034 87.257 Q 104.727 89.021 104.727 94.23 Q 104.727 99.357 105.034 101.161 Q 105.198 102.125 105.445 102.761 Q 105.711 103.376 106.039 104.053 Q 107.126 106.124 109.526 107.703 Q 111.884 109.344 115.411 109.426 Q 119.308 109.426 122.158 107.211 Q 124.927 104.976 125.911 100.813 Z M 108.439 71.692 L 112.479 71.692 L 115.288 75.301 L 115.288 75.301 L 118.098 71.692 L 122.138 71.692 L 117.667 77.824 L 112.889 77.824 Z M 145.224 100.157 L 145.224 96.629 Q 145.183 92.425 142.619 90.026 Q 140.097 87.667 136.446 87.626 Q 134.929 87.626 133.37 88.18 Q 131.791 88.734 130.519 89.985 Q 129.268 91.215 128.469 93.348 Q 127.669 95.44 127.669 98.598 Q 127.669 101.879 128.592 103.93 Q 129.433 106.063 130.786 107.252 Q 131.483 107.826 132.283 108.216 Q 133.042 108.667 133.842 108.934 Q 135.441 109.426 137.123 109.426 Q 141.532 109.467 144.793 105.981 L 141.696 103.335 L 141.696 103.335 Q 139.645 105.407 137.041 105.407 Q 134.806 105.407 133.432 104.053 Q 131.955 102.72 131.955 100.157 Z M 131.955 96.629 Q 132.078 94.148 133.288 92.876 Q 134.518 91.666 136.446 91.666 Q 138.374 91.666 139.604 92.876 Q 140.855 94.148 140.937 96.629 Z M 150.351 102.679 L 147.357 105.612 Q 151.52 109.426 156.729 109.426 Q 160.564 109.385 163.025 107.662 Q 165.506 105.981 165.547 102.884 Q 165.547 100.239 164.173 98.516 Q 162.697 96.752 159.374 96.506 L 155.847 96.24 Q 154.289 96.076 153.673 95.481 Q 152.997 94.948 153.038 94.23 Q 153.038 93.102 153.878 92.384 Q 154.678 91.666 156.688 91.666 Q 158.452 91.666 159.805 92.179 Q 161.179 92.753 162.41 93.635 L 162.41 93.635 L 165.055 90.538 Q 163.497 89.185 161.528 88.385 Q 160.502 88.016 159.333 87.811 Q 158.165 87.626 156.688 87.626 Q 153.284 87.626 151.069 89.267 Q 148.792 90.908 148.751 94.189 Q 148.792 96.916 150.515 98.434 Q 152.197 99.993 154.883 100.239 L 158.657 100.567 Q 159.846 100.608 160.564 101.079 Q 161.261 101.531 161.261 102.679 Q 161.261 103.971 160.092 104.689 Q 158.923 105.407 157.078 105.407 Q 152.956 105.407 150.351 102.679 Z M 154.699 85.165 L 159.477 85.165 L 163.948 79.034 L 159.908 79.034 L 157.098 82.643 L 157.098 82.643 L 154.289 79.034 L 150.249 79.034 Z M 170.118 87.893 L 167.985 87.893 L 167.985 91.154 L 170.118 91.154 L 170.118 103.93 Q 170.118 106.452 171.595 107.785 Q 173.03 109.18 175.286 109.18 L 177.521 109.18 L 177.521 105.14 L 175.922 105.14 Q 174.363 105.181 174.404 103.561 L 174.404 91.154 L 177.521 91.154 L 177.521 87.893 L 174.404 87.893 L 174.404 81.412 L 170.118 81.412 Z M 181.66 109.18 L 185.946 109.18 L 185.946 87.893 L 181.66 87.893 Z M 181.66 83.566 L 185.946 83.566 L 185.946 79.28 L 181.66 79.28 Z M 191.607 109.18 L 195.893 109.18 L 195.893 96.506 Q 195.893 94.271 197.103 93.102 Q 198.293 91.912 200.138 91.912 Q 201.984 91.912 203.153 93.102 Q 204.342 94.271 204.342 96.506 L 204.342 109.18 L 208.629 109.18 L 208.629 95.03 Q 208.526 91.379 206.352 89.493 Q 204.158 87.626 201.512 87.626 Q 198.088 87.626 195.975 90.149 L 195.893 90.149 L 195.893 87.893 L 191.607 87.893 Z M 225.339 109.18 L 229.625 109.18 L 229.625 94.64 Q 229.584 90.743 227.185 89.144 Q 224.785 87.585 220.766 87.626 Q 216.008 87.544 213.568 90.743 L 216.931 93.307 L 216.931 93.307 Q 217.485 92.384 218.448 91.994 Q 219.371 91.666 220.971 91.666 Q 225.38 91.584 225.339 94.394 L 225.339 96.629 L 219.412 96.629 Q 216.008 96.67 214.244 98.475 Q 212.481 100.239 212.481 102.925 Q 212.481 105.735 214.511 107.539 Q 216.439 109.385 220.007 109.426 Q 222.181 109.426 223.411 108.893 Q 224.662 108.38 225.257 107.293 L 225.339 107.293 Z M 225.339 101.695 Q 225.339 104.094 224.334 104.771 Q 223.227 105.448 220.54 105.407 Q 218.407 105.407 217.485 104.566 Q 216.521 103.807 216.521 102.72 Q 216.48 100.239 220.212 100.157 L 225.339 100.157 Z" style="fill: rgb(51, 51, 51);"/>
  <path d="M 250.032 109.18 L 253.56 109.18 L 261.373 87.893 L 256.82 87.893 L 251.837 102.802 L 251.755 102.802 L 246.751 87.893 L 242.219 87.893 Z M 273.937 117.793 L 278.223 117.793 L 278.223 106.904 L 278.223 106.904 Q 279.392 108.052 280.787 108.708 Q 282.079 109.426 283.72 109.426 Q 285.709 109.385 287.124 108.626 Q 288.559 107.888 289.441 106.658 Q 290.323 105.612 290.651 103.971 Q 290.959 102.33 290.959 98.557 Q 290.959 94.681 290.651 93.061 Q 290.323 91.42 289.441 90.415 Q 287.637 87.729 283.72 87.626 Q 280.356 87.729 278.223 90.108 L 278.223 90.108 L 278.223 87.893 L 273.937 87.893 Z M 282.428 105.14 Q 280.992 105.14 280.151 104.525 Q 279.269 103.93 278.859 102.966 Q 278.47 102.002 278.347 100.813 Q 278.223 99.685 278.223 98.557 Q 278.223 97.347 278.347 96.158 Q 278.47 95.03 278.859 94.066 Q 279.269 93.102 280.151 92.507 Q 280.992 91.912 282.428 91.912 Q 283.945 91.912 284.827 92.425 Q 285.709 92.979 286.078 93.943 Q 286.488 94.866 286.632 96.076 Q 286.673 97.285 286.673 98.557 Q 286.673 99.767 286.632 100.915 Q 286.488 102.084 286.078 103.048 Q 285.709 103.971 284.827 104.566 Q 283.945 105.14 282.428 105.14 Z M 294.689 98.516 Q 294.689 101.879 295.243 103.643 Q 295.817 105.407 297.006 106.699 Q 297.888 107.703 299.467 108.503 Q 301.026 109.385 303.466 109.426 Q 305.989 109.385 307.547 108.503 Q 308.388 108.134 308.921 107.621 Q 309.516 107.17 309.926 106.699 Q 311.198 105.407 311.731 103.643 Q 312.244 101.879 312.244 98.516 Q 312.244 95.153 311.731 93.348 Q 311.198 91.584 309.926 90.374 Q 309.085 89.308 307.547 88.467 Q 305.989 87.667 303.466 87.626 Q 301.026 87.667 299.467 88.467 Q 297.888 89.308 297.006 90.374 Q 295.817 91.584 295.243 93.348 Q 294.689 95.153 294.689 98.516 Z M 307.957 98.557 Q 307.957 100.731 307.752 101.756 Q 307.547 102.802 306.912 103.602 Q 306.44 104.217 305.517 104.689 Q 304.635 105.14 303.466 105.14 Q 302.379 105.14 301.456 104.689 Q 300.575 104.217 300.021 103.602 Q 299.467 102.802 299.221 101.756 Q 298.975 100.731 298.975 98.516 Q 298.975 96.281 299.221 95.235 Q 299.467 94.23 300.021 93.471 Q 300.575 92.753 301.456 92.343 Q 302.379 91.912 303.466 91.912 Q 304.635 91.912 305.517 92.343 Q 306.44 92.753 306.912 93.471 Q 307.547 94.23 307.752 95.235 Q 307.957 96.281 307.957 98.557 Z M 316.735 109.18 L 321.021 109.18 L 321.021 96.506 Q 321.021 94.271 322.231 93.102 Q 323.421 91.912 325.267 91.912 Q 327.112 91.912 328.281 93.102 Q 329.471 94.271 329.471 96.506 L 329.471 109.18 L 333.757 109.18 L 333.757 95.03 Q 333.654 91.379 331.48 89.493 Q 329.286 87.626 326.641 87.626 Q 323.216 87.626 321.104 90.149 L 321.021 90.149 L 321.021 79.28 L 316.735 79.28 Z M 338.245 98.516 Q 338.245 101.879 338.798 103.643 Q 339.373 105.407 340.562 106.699 Q 341.444 107.703 343.023 108.503 Q 344.582 109.385 347.022 109.426 Q 349.545 109.385 351.103 108.503 Q 351.944 108.134 352.477 107.621 Q 353.072 107.17 353.482 106.699 Q 354.754 105.407 355.287 103.643 Q 355.799 101.879 355.799 98.516 Q 355.799 95.153 355.287 93.348 Q 354.754 91.584 353.482 90.374 Q 352.641 89.308 351.103 88.467 Q 349.545 87.667 347.022 87.626 Q 344.582 87.667 343.023 88.467 Q 341.444 89.308 340.562 90.374 Q 339.373 91.584 338.798 93.348 Q 338.245 95.153 338.245 98.516 Z M 351.513 98.557 Q 351.513 100.731 351.308 101.756 Q 351.103 102.802 350.467 103.602 Q 349.996 104.217 349.073 104.689 Q 348.191 105.14 347.022 105.14 Q 345.935 105.14 345.012 104.689 Q 344.13 104.217 343.577 103.602 Q 343.023 102.802 342.777 101.756 Q 342.531 100.731 342.531 98.516 Q 342.531 96.281 342.777 95.235 Q 343.023 94.23 343.577 93.471 Q 344.13 92.753 345.012 92.343 Q 345.935 91.912 347.022 91.912 Q 348.191 91.912 349.073 92.343 Q 349.996 92.753 350.467 93.471 Q 351.103 94.23 351.308 95.235 Q 351.513 96.281 351.513 98.557 Z M 373.027 106.945 L 373.027 109.18 L 377.313 109.18 L 377.313 79.28 L 373.027 79.28 L 373.027 90.149 L 373.027 90.149 Q 371.837 89.021 370.545 88.303 Q 369.151 87.626 367.51 87.626 Q 363.613 87.729 361.809 90.415 Q 360.927 91.42 360.64 93.061 Q 360.291 94.681 360.291 98.516 Q 360.291 102.289 360.64 103.93 Q 360.927 105.653 361.809 106.658 Q 362.773 107.888 364.208 108.626 Q 365.582 109.385 367.51 109.426 Q 370.914 109.344 373.027 106.945 Z M 368.822 91.912 Q 370.34 91.912 371.222 92.507 Q 372.104 93.102 372.432 94.066 Q 372.842 95.03 372.986 96.158 Q 373.027 97.285 373.027 98.516 Q 373.027 99.644 372.986 100.813 Q 372.842 102.002 372.432 102.966 Q 372.104 103.93 371.222 104.525 Q 370.34 105.14 368.822 105.14 Q 367.305 105.14 366.505 104.566 Q 365.623 103.971 365.213 103.048 Q 364.823 102.084 364.7 100.874 Q 364.577 99.726 364.577 98.516 Q 364.577 97.244 364.7 96.034 Q 364.823 94.907 365.213 93.943 Q 365.623 92.979 366.505 92.425 Q 367.305 91.912 368.822 91.912 Z M 398.597 100.157 L 398.597 96.629 Q 398.556 92.425 395.993 90.026 Q 393.47 87.667 389.82 87.626 Q 388.303 87.626 386.744 88.18 Q 385.165 88.734 383.893 89.985 Q 382.642 91.215 381.843 93.348 Q 381.043 95.44 381.043 98.598 Q 381.043 101.879 381.966 103.93 Q 382.806 106.063 384.16 107.252 Q 384.857 107.826 385.657 108.216 Q 386.416 108.667 387.216 108.934 Q 388.815 109.426 390.497 109.426 Q 394.906 109.467 398.167 105.981 L 395.07 103.335 L 395.07 103.335 Q 393.019 105.407 390.415 105.407 Q 388.179 105.407 386.805 104.053 Q 385.329 102.72 385.329 100.157 Z M 385.329 96.629 Q 385.452 94.148 386.662 92.876 Q 387.892 91.666 389.82 91.666 Q 391.748 91.666 392.978 92.876 Q 394.229 94.148 394.311 96.629 Z M 382.991 79.034 L 387.031 79.034 L 389.841 82.643 L 389.841 82.643 L 392.65 79.034 L 396.69 79.034 L 392.22 85.165 L 387.441 85.165 Z" style="fill: rgb(175, 132, 232); stroke: url('#gradient-0');"/>
</svg>